<mxfile host="app.diagrams.net" modified="2024-05-11T13:29:38.734Z" agent="Mozilla/5.0 (X11; Ubuntu; Linux x86_64; rv:125.0) Gecko/20100101 Firefox/125.0" etag="nqLI3o5xKhiyxPP7pKiY" version="24.4.0" type="github">
  <diagram name="Page-1" id="KN8cPZvBBTPqnxrNGcta">
    <mxGraphModel dx="649" dy="379" grid="1" gridSize="10" guides="1" tooltips="1" connect="1" arrows="1" fold="1" page="1" pageScale="1" pageWidth="850" pageHeight="1100" math="0" shadow="0">
      <root>
        <mxCell id="0" />
        <mxCell id="1" parent="0" />
        <mxCell id="k7jpUDr79bOtafX9O2h--1" value="" style="rounded=1;whiteSpace=wrap;html=1;labelBorderColor=none;dashed=1;fillColor=#fff2cc;strokeColor=#d6b656;" vertex="1" parent="1">
          <mxGeometry x="80" y="90" width="270" height="50" as="geometry" />
        </mxCell>
        <mxCell id="k7jpUDr79bOtafX9O2h--2" value="Prepare Training Image" style="text;align=center;verticalAlign=middle;resizable=0;points=[];autosize=1;strokeColor=none;fillColor=none;fontStyle=1;labelBackgroundColor=none;labelBorderColor=none;textShadow=0;html=1;" vertex="1" parent="1">
          <mxGeometry x="145" y="60" width="150" height="30" as="geometry" />
        </mxCell>
        <mxCell id="k7jpUDr79bOtafX9O2h--7" value="" style="edgeStyle=orthogonalEdgeStyle;rounded=0;orthogonalLoop=1;jettySize=auto;html=1;" edge="1" parent="1" source="k7jpUDr79bOtafX9O2h--3" target="k7jpUDr79bOtafX9O2h--4">
          <mxGeometry relative="1" as="geometry" />
        </mxCell>
        <mxCell id="k7jpUDr79bOtafX9O2h--3" value="find boundaries" style="rounded=1;whiteSpace=wrap;html=1;fillColor=#f9f7ed;strokeColor=#36393d;" vertex="1" parent="1">
          <mxGeometry x="90" y="100" width="70" height="30" as="geometry" />
        </mxCell>
        <mxCell id="k7jpUDr79bOtafX9O2h--10" value="" style="edgeStyle=orthogonalEdgeStyle;rounded=0;orthogonalLoop=1;jettySize=auto;html=1;" edge="1" parent="1" source="k7jpUDr79bOtafX9O2h--4" target="k7jpUDr79bOtafX9O2h--9">
          <mxGeometry relative="1" as="geometry" />
        </mxCell>
        <mxCell id="k7jpUDr79bOtafX9O2h--4" value="extract image snippets" style="rounded=1;whiteSpace=wrap;html=1;fillColor=#f9f7ed;strokeColor=#36393d;" vertex="1" parent="1">
          <mxGeometry x="177.5" y="100" width="75" height="30" as="geometry" />
        </mxCell>
        <mxCell id="k7jpUDr79bOtafX9O2h--9" value="resize and label images" style="rounded=1;whiteSpace=wrap;html=1;fillColor=#f9f7ed;strokeColor=#36393d;" vertex="1" parent="1">
          <mxGeometry x="270" y="100" width="70" height="30" as="geometry" />
        </mxCell>
        <mxCell id="k7jpUDr79bOtafX9O2h--15" value="" style="rounded=1;whiteSpace=wrap;html=1;dashed=1;fillColor=#f8cecc;strokeColor=#b85450;" vertex="1" parent="1">
          <mxGeometry x="80" y="170" width="270" height="50" as="geometry" />
        </mxCell>
        <mxCell id="k7jpUDr79bOtafX9O2h--16" value="" style="edgeStyle=orthogonalEdgeStyle;rounded=0;orthogonalLoop=1;jettySize=auto;html=1;" edge="1" parent="1" source="k7jpUDr79bOtafX9O2h--17" target="k7jpUDr79bOtafX9O2h--19">
          <mxGeometry relative="1" as="geometry" />
        </mxCell>
        <mxCell id="k7jpUDr79bOtafX9O2h--17" value="split train/test" style="rounded=1;whiteSpace=wrap;html=1;fillColor=#eeeeee;strokeColor=#36393d;" vertex="1" parent="1">
          <mxGeometry x="90" y="180" width="70" height="30" as="geometry" />
        </mxCell>
        <mxCell id="k7jpUDr79bOtafX9O2h--18" value="" style="edgeStyle=orthogonalEdgeStyle;rounded=0;orthogonalLoop=1;jettySize=auto;html=1;" edge="1" parent="1" source="k7jpUDr79bOtafX9O2h--19" target="k7jpUDr79bOtafX9O2h--20">
          <mxGeometry relative="1" as="geometry" />
        </mxCell>
        <mxCell id="k7jpUDr79bOtafX9O2h--19" value="train/evaluate model" style="rounded=1;whiteSpace=wrap;html=1;fillColor=#eeeeee;strokeColor=#36393d;" vertex="1" parent="1">
          <mxGeometry x="177.5" y="180" width="75" height="30" as="geometry" />
        </mxCell>
        <mxCell id="k7jpUDr79bOtafX9O2h--20" value="save model" style="rounded=1;whiteSpace=wrap;html=1;fillColor=#eeeeee;strokeColor=#36393d;" vertex="1" parent="1">
          <mxGeometry x="270" y="180" width="70" height="30" as="geometry" />
        </mxCell>
        <mxCell id="k7jpUDr79bOtafX9O2h--22" value="Train ML Model" style="text;align=center;verticalAlign=middle;resizable=0;points=[];autosize=1;strokeColor=none;fillColor=none;fontStyle=1;labelBackgroundColor=none;labelBorderColor=none;textShadow=0;html=1;" vertex="1" parent="1">
          <mxGeometry x="160" y="140" width="110" height="30" as="geometry" />
        </mxCell>
        <mxCell id="k7jpUDr79bOtafX9O2h--23" value="" style="rounded=1;whiteSpace=wrap;html=1;dashed=1;fillColor=#d5e8d4;strokeColor=#82b366;" vertex="1" parent="1">
          <mxGeometry x="80" y="250" width="270" height="110" as="geometry" />
        </mxCell>
        <mxCell id="k7jpUDr79bOtafX9O2h--24" value="" style="edgeStyle=orthogonalEdgeStyle;rounded=0;orthogonalLoop=1;jettySize=auto;html=1;" edge="1" parent="1" source="k7jpUDr79bOtafX9O2h--25" target="k7jpUDr79bOtafX9O2h--27">
          <mxGeometry relative="1" as="geometry" />
        </mxCell>
        <mxCell id="k7jpUDr79bOtafX9O2h--25" value="load model" style="rounded=1;whiteSpace=wrap;html=1;fillColor=#eeeeee;strokeColor=#36393d;" vertex="1" parent="1">
          <mxGeometry x="90" y="260" width="70" height="30" as="geometry" />
        </mxCell>
        <mxCell id="k7jpUDr79bOtafX9O2h--31" value="" style="edgeStyle=orthogonalEdgeStyle;rounded=0;orthogonalLoop=1;jettySize=auto;html=1;" edge="1" parent="1" source="k7jpUDr79bOtafX9O2h--27" target="k7jpUDr79bOtafX9O2h--30">
          <mxGeometry relative="1" as="geometry" />
        </mxCell>
        <mxCell id="k7jpUDr79bOtafX9O2h--27" value="load video" style="rounded=1;whiteSpace=wrap;html=1;fillColor=#eeeeee;strokeColor=#36393d;" vertex="1" parent="1">
          <mxGeometry x="177.5" y="260" width="75" height="30" as="geometry" />
        </mxCell>
        <mxCell id="k7jpUDr79bOtafX9O2h--29" value="Find Markers" style="text;align=center;verticalAlign=middle;resizable=0;points=[];autosize=1;strokeColor=none;fillColor=none;fontStyle=1;labelBackgroundColor=none;labelBorderColor=none;textShadow=0;html=1;" vertex="1" parent="1">
          <mxGeometry x="170" y="220" width="90" height="30" as="geometry" />
        </mxCell>
        <mxCell id="k7jpUDr79bOtafX9O2h--41" style="edgeStyle=orthogonalEdgeStyle;rounded=0;orthogonalLoop=1;jettySize=auto;html=1;exitX=0.5;exitY=1;exitDx=0;exitDy=0;" edge="1" parent="1" source="k7jpUDr79bOtafX9O2h--30" target="k7jpUDr79bOtafX9O2h--32">
          <mxGeometry relative="1" as="geometry">
            <Array as="points">
              <mxPoint x="305" y="300" />
              <mxPoint x="135" y="300" />
            </Array>
          </mxGeometry>
        </mxCell>
        <mxCell id="k7jpUDr79bOtafX9O2h--30" value="extract image snippets" style="rounded=1;whiteSpace=wrap;html=1;fillColor=#eeeeee;strokeColor=#36393d;" vertex="1" parent="1">
          <mxGeometry x="265" y="260" width="80" height="30" as="geometry" />
        </mxCell>
        <mxCell id="k7jpUDr79bOtafX9O2h--37" value="" style="edgeStyle=orthogonalEdgeStyle;rounded=0;orthogonalLoop=1;jettySize=auto;html=1;" edge="1" parent="1" source="k7jpUDr79bOtafX9O2h--32" target="k7jpUDr79bOtafX9O2h--36">
          <mxGeometry relative="1" as="geometry" />
        </mxCell>
        <mxCell id="k7jpUDr79bOtafX9O2h--32" value="predict marker" style="rounded=1;whiteSpace=wrap;html=1;fillColor=#eeeeee;strokeColor=#36393d;" vertex="1" parent="1">
          <mxGeometry x="90" y="320" width="90" height="30" as="geometry" />
        </mxCell>
        <mxCell id="k7jpUDr79bOtafX9O2h--36" value="highlight marker in video" style="rounded=1;whiteSpace=wrap;html=1;fillColor=#eeeeee;strokeColor=#36393d;" vertex="1" parent="1">
          <mxGeometry x="205" y="320" width="140" height="30" as="geometry" />
        </mxCell>
        <mxCell id="k7jpUDr79bOtafX9O2h--47" value="" style="shape=flexArrow;endArrow=classic;html=1;rounded=0;fillColor=#F7F7F7;fillStyle=auto;" edge="1" parent="1">
          <mxGeometry width="50" height="50" relative="1" as="geometry">
            <mxPoint x="370" y="90" as="sourcePoint" />
            <mxPoint x="370" y="360" as="targetPoint" />
          </mxGeometry>
        </mxCell>
      </root>
    </mxGraphModel>
  </diagram>
</mxfile>
